<?xml version="1.0" encoding="UTF-8"?>
<svg xmlns="http://www.w3.org/2000/svg" xmlns:xlink="http://www.w3.org/1999/xlink" viewBox="158 367 256 60">
  <defs>
    <style>
      .cls-1 {
        fill: #231f20;
      }

      .cls-2 {
        clip-path: url(#clippath-3);
      }

      .cls-3, .cls-4, .cls-5, .cls-6 {
        fill: #fff;
      }

      .cls-4 {
        clip-path: url(#clippath-1);
      }

      .cls-5 {
        clip-path: url(#clippath-2);
      }

      .cls-6 {
        clip-path: url(#clippath);
      }
    </style>
    <clipPath id="clippath">
      <path class="cls-3" d="M184.55,414.15l2.85,5.12,1.95.04c1.37.03,2.5,1.1,2.42,2.48h-15.22c-.04-1.23.74-2.15,1.82-2.35l1.51-.11-1.84-3.2-2.21.2c-1.64,4.1-4.9,5.81-9.4,5.43l.06-20.95c0-3.25,1.81-6.05,4.49-7.65-.71-1.02-1.41-1.96-1.92-3.03-1.58-3.38-1.42-7.24.54-10.45l2.14.99c-2.34,4.01-1.44,8.48,1.83,11.62,2.8-.4,5.67.89,7.38,3.27,3.49.36,7-.61,9.69-2.92,3.62-3.1,4.63-7.94,2.21-12.01l2.14-.99c.89,1.48,1.56,3.27,1.58,5.14.06,3.9.14,7.74-.02,11.64-.25,6.29-3.43,11.92-8.45,15.58-1.15.84-2.13,1.49-3.58,2.14ZM176.63,413.78c2.57-.01,4.84-.8,7.03-1.84,5.99-2.85,10.46-9.2,10.54-15.72l.05-3.88-1.29,1.48c-2.36,2.29-5.35,3.79-8.63,4.12l-2.03.2.46,2.48c.19,5.37-1.69,9.91-6.12,13.17ZM168.95,411.32l.04,2.6c2.8-.09,5.15-1.14,7.19-2.85,1.39-1.17,2.42-2.64,3.17-4.33,1.44-3.23,1.65-8.21-1.17-10.69-1.32-1.17-3.02-1.57-4.81-1.17-1.39.31-2.76,1.29-3.52,2.77-.41.8-.85,1.78-.86,2.74l-.03,8.52c4.08-.48,6.12-3.67,6.42-7.6l2.37-.04c-.08,5.31-3.51,9.58-8.8,10.06ZM182.59,419.28l2.09.02-2.36-4.27-1.75.59,2.02,3.66ZM173.14,416.41l-4.19-.02.04,2.94c1.89-.32,3.39-1.31,4.15-2.92Z"/>
    </clipPath>
    <clipPath id="clippath-1">
      <path class="cls-6" d="M182.3,392.47l-2.47-3.94c.77-1.05,1.32-2.17,1.25-3.43-.19-3.57-2.75-5.12-6.17-5.34-3.82-.24-7.08-2.28-7.63-6.2l2.39-.09c.29,1.34,1.08,2.38,2.32,3,5.79-5.44,14.81-5.49,20.66.02,1.17-.63,1.97-1.63,2.2-2.97l2.47-.03c-.37,2.64-2.04,4.65-4.44,5.57-1.39.54-2.83.68-4.31.81-2.97.26-5.16,2.59-5.08,5.57.16,1.14.55,2.11,1.31,3.05l-2.51,3.96ZM188.34,377.51l1.45-.14c-2.18-1.88-5.72-2.77-8.62-2.48-2.32.23-4.51.95-6.41,2.48,3.2.18,5.67,1.02,7.59,3.7,1.38-2.13,3.55-3.31,6-3.56Z"/>
    </clipPath>
    <clipPath id="clippath-2">
      <path class="cls-4" d="M188.61,383.45c-.05.64.34,1.09.87,1.24s1.04-.14,1.38-.78c.56,1.12.07,2.57-.9,3.21-1.1.72-2.51.6-3.39-.28s-1.06-2.31-.36-3.4,1.95-1.58,3.14-1.01c-.47.28-.71.58-.75,1.02Z"/>
    </clipPath>
    <clipPath id="clippath-3">
      <path class="cls-5" d="M176.34,383.78c.08.64.57.91,1.09.94s.88-.3,1.2-.85c.5,1.09.16,2.29-.64,3.03s-2.01.91-2.99.38-1.53-1.52-1.4-2.71c.18-1.61,1.82-2.83,3.46-2.2-.46.36-.79.75-.71,1.41Z"/>
    </clipPath>
  </defs>
  <g id="LOGO_TEXT" data-name="LOGO TEXT">
    <g>
      <g>
        <path class="cls-3" d="M222.02,421.8l-12.96-49.39h11.38l7.2,29.45c.14.43.29,1.07.43,1.91.14.84.29,1.72.43,2.63.14.91.26,1.73.36,2.45h.36c.1-.53.18-1.13.25-1.8.07-.67.17-1.33.29-1.98.12-.65.24-1.26.36-1.84.12-.58.2-1.03.25-1.37l6.7-29.45h12.82l6.84,29.45c.14.48.29,1.13.43,1.94.14.82.29,1.68.43,2.59.14.91.26,1.73.36,2.45h.36c.1-.53.2-1.1.32-1.73.12-.62.24-1.26.36-1.91.12-.65.25-1.26.4-1.84.14-.58.26-1.08.36-1.51l7.13-29.45h10.3l-13.03,49.39h-12.24l-7.27-30.38c-.14-.67-.3-1.45-.47-2.34-.17-.89-.32-1.76-.47-2.63-.14-.86-.26-1.63-.36-2.3h-.29c-.1.67-.2,1.46-.32,2.38-.12.91-.26,1.8-.43,2.66-.17.86-.32,1.61-.47,2.23l-7.2,30.38h-12.6Z"/>
        <path class="cls-3" d="M281.13,421.8v-49.39h10.73v49.39h-10.73Z"/>
        <path class="cls-3" d="M319.86,422.66c-2.88,0-5.62-.29-8.21-.86s-4.88-1.5-6.88-2.77c-1.99-1.27-3.55-2.88-4.68-4.82-1.13-1.94-1.69-4.31-1.69-7.09v-.76c0-.26.02-.47.07-.61h10.66c-.05.14-.07.34-.07.58v.65c0,1.54.42,2.83,1.26,3.89.84,1.06,2.08,1.85,3.71,2.38,1.63.53,3.53.79,5.69.79,1.39,0,2.63-.08,3.71-.25,1.08-.17,2.04-.41,2.88-.72.84-.31,1.54-.68,2.09-1.12.55-.43.96-.94,1.22-1.51.26-.58.4-1.22.4-1.94,0-1.3-.42-2.35-1.26-3.17-.84-.82-1.99-1.51-3.46-2.09-1.46-.58-3.11-1.1-4.93-1.58-1.82-.48-3.7-.97-5.62-1.48-1.92-.5-3.79-1.13-5.62-1.87-1.82-.74-3.46-1.64-4.9-2.7-1.44-1.06-2.59-2.4-3.46-4.03-.86-1.63-1.3-3.6-1.3-5.9,0-2.45.52-4.56,1.55-6.34,1.03-1.78,2.48-3.24,4.36-4.39s4.03-2,6.48-2.56c2.45-.55,5.11-.83,7.99-.83,2.69,0,5.23.28,7.63.83,2.4.55,4.51,1.43,6.34,2.63,1.82,1.2,3.25,2.71,4.28,4.54,1.03,1.82,1.55,3.98,1.55,6.48v.86h-10.44v-.58c0-1.3-.38-2.4-1.15-3.31-.77-.91-1.85-1.63-3.24-2.16-1.39-.53-3.02-.79-4.9-.79-2.02,0-3.73.19-5.15.58-1.42.38-2.5.95-3.24,1.69-.74.75-1.12,1.62-1.12,2.63,0,1.15.42,2.1,1.26,2.84.84.74,1.99,1.39,3.46,1.94,1.46.55,3.11,1.04,4.93,1.48s3.7.91,5.62,1.44c1.92.53,3.79,1.15,5.62,1.87,1.82.72,3.46,1.62,4.9,2.7,1.44,1.08,2.59,2.41,3.46,4s1.3,3.48,1.3,5.69c0,3.79-.91,6.84-2.74,9.14-1.83,2.3-4.32,3.98-7.49,5.04-3.17,1.06-6.79,1.58-10.87,1.58Z"/>
        <path class="cls-3" d="M347.37,421.8v-49.39h39.46v8.78h-28.66v11.02h25.34v8.71h-25.34v12.02h29.09v8.86h-39.89Z"/>
      </g>
      <g>
        <path class="cls-3" d="M390.27,386.14l5.28-13.72h3.68l5.28,13.72h-3.22l-.98-2.7h-5.98l-.98,2.7h-3.08ZM395.19,381.04h4.26l-1.22-3.38c-.05-.15-.12-.32-.19-.53-.07-.21-.15-.44-.23-.69-.08-.25-.16-.5-.23-.75-.07-.25-.14-.47-.21-.67h-.12c-.07.25-.15.55-.26.89s-.21.67-.32.98c-.11.31-.19.57-.26.77l-1.22,3.38Z"/>
        <path class="cls-3" d="M405.55,386.14v-13.72h2.98v13.72h-2.98Z"/>
      </g>
    </g>
  </g>
  <g id="LOGO">
    <g>
      <path class="cls-3" d="M184.55,414.15l2.85,5.12,1.95.04c1.37.03,2.5,1.1,2.42,2.48h-15.22c-.04-1.23.74-2.15,1.82-2.35l1.51-.11-1.84-3.2-2.21.2c-1.64,4.1-4.9,5.81-9.4,5.43l.06-20.95c0-3.25,1.81-6.05,4.49-7.65-.71-1.02-1.41-1.96-1.92-3.03-1.58-3.38-1.42-7.24.54-10.45l2.14.99c-2.34,4.01-1.44,8.48,1.83,11.62,2.8-.4,5.67.89,7.38,3.27,3.49.36,7-.61,9.69-2.92,3.62-3.1,4.63-7.94,2.21-12.01l2.14-.99c.89,1.48,1.56,3.27,1.58,5.14.06,3.9.14,7.74-.02,11.64-.25,6.29-3.43,11.92-8.45,15.58-1.15.84-2.13,1.49-3.58,2.14ZM176.63,413.78c2.57-.01,4.84-.8,7.03-1.84,5.99-2.85,10.46-9.2,10.54-15.72l.05-3.88-1.29,1.48c-2.36,2.29-5.35,3.79-8.63,4.12l-2.03.2.46,2.48c.19,5.37-1.69,9.91-6.12,13.17ZM168.95,411.32l.04,2.6c2.8-.09,5.15-1.14,7.19-2.85,1.39-1.17,2.42-2.64,3.17-4.33,1.44-3.23,1.65-8.21-1.17-10.69-1.32-1.17-3.02-1.57-4.81-1.17-1.39.31-2.76,1.29-3.52,2.77-.41.8-.85,1.78-.86,2.74l-.03,8.52c4.08-.48,6.12-3.67,6.42-7.6l2.37-.04c-.08,5.31-3.51,9.58-8.8,10.06ZM182.59,419.28l2.09.02-2.36-4.27-1.75.59,2.02,3.66ZM173.14,416.41l-4.19-.02.04,2.94c1.89-.32,3.39-1.31,4.15-2.92Z"/>
      <path class="cls-3" d="M182.3,392.47l-2.47-3.94c.77-1.05,1.32-2.17,1.25-3.43-.19-3.57-2.75-5.12-6.17-5.34-3.82-.24-7.08-2.28-7.63-6.2l2.39-.09c.29,1.34,1.08,2.38,2.32,3,5.79-5.44,14.81-5.49,20.66.02,1.17-.63,1.97-1.63,2.2-2.97l2.47-.03c-.37,2.64-2.04,4.65-4.44,5.57-1.39.54-2.83.68-4.31.81-2.97.26-5.16,2.59-5.08,5.57.16,1.14.55,2.11,1.31,3.05l-2.51,3.96ZM188.34,377.51l1.45-.14c-2.18-1.88-5.72-2.77-8.62-2.48-2.32.23-4.51.95-6.41,2.48,3.2.18,5.67,1.02,7.59,3.7,1.38-2.13,3.55-3.31,6-3.56Z"/>
      <path class="cls-3" d="M188.61,383.45c-.05.64.34,1.09.87,1.24s1.04-.14,1.38-.78c.56,1.12.07,2.57-.9,3.21-1.1.72-2.51.6-3.39-.28s-1.06-2.31-.36-3.4,1.95-1.58,3.14-1.01c-.47.28-.71.58-.75,1.02Z"/>
      <path class="cls-3" d="M176.34,383.78c.08.64.57.91,1.09.94s.88-.3,1.2-.85c.5,1.09.16,2.29-.64,3.03s-2.01.91-2.99.38-1.53-1.52-1.4-2.71c.18-1.61,1.82-2.83,3.46-2.2-.46.36-.79.75-.71,1.41Z"/>
      <g class="cls-2">
        <polygon class="cls-3" points="182.59 419.28 180.57 415.62 182.32 415.03 184.68 419.3 182.59 419.28"/>
      </g>
    </g>
  </g>
</svg>